<svg xmlns="http://www.w3.org/2000/svg" xmlns:xlink="http://www.w3.org/1999/xlink" width="31" height="26" viewBox="0 0 31 26"><defs><path id="27rua" d="M285.854 10l1.916 3.677 3.896.792-2.712 3.064.492 4.166-3.592-1.782-3.592 1.782.492-4.166-2.712-3.064 3.896-.792L285.854 10"/><path id="27rub" d="M276.812 24.3l1.916 3.677 3.896.792-2.712 3.064.492 4.166-3.592-1.782-3.591 1.782.492-4.166L271 28.77l3.896-.792 1.915-3.677"/><path id="27ruc" d="M296.187 24.3l1.916 3.677 3.896.792-2.712 3.064.492 4.166-3.592-1.782-3.592 1.782.493-4.166-2.712-3.064 3.896-.792 1.915-3.677"/></defs><g><g transform="translate(-271 -10)"><use fill="#4e26fd" xlink:href="#27rua"/></g><g transform="translate(-271 -10)"><use fill="#4e26fd" xlink:href="#27rub"/></g><g transform="translate(-271 -10)"><use fill="#4e26fd" xlink:href="#27ruc"/></g></g></svg>